<svg width="60" height="60" viewBox="0 0 60 60" fill="none" xmlns="http://www.w3.org/2000/svg">
<circle cx="30" cy="30" r="30" fill="white"/>
<mask id="mask0_409_10" style="mask-type:alpha" maskUnits="userSpaceOnUse" x="2" y="8" width="56" height="44">
<path d="M18.3333 10C15.4167 10 11.0417 11 11.0417 15V24C11.0417 27 3.75 29 3.75 29C3.75 29 11.0417 31 11.0417 34V45C11.0417 49 15.4167 50 18.3333 50M41.6667 10C44.5833 10 48.9583 11 48.9583 15V24C48.9583 27 56.25 29 56.25 29C56.25 29 48.9583 31 48.9583 34V45C48.9583 49 44.5833 50 41.6667 50" stroke="white" stroke-width="3" stroke-linecap="round" stroke-linejoin="round"/>
<path d="M33.1009 16.1259L40.5011 20.4031C40.8455 20.0412 41.2694 19.7644 41.7391 19.5945C42.2089 19.4246 42.7118 19.3664 43.208 19.4243C43.7042 19.4823 44.1801 19.6548 44.5981 19.9284C45.0161 20.202 45.3648 20.569 45.6165 21.0005C45.865 21.4337 46.0093 21.9188 46.0379 22.4173C46.0665 22.9159 45.9787 23.4143 45.7813 23.8731C45.584 24.3318 45.2826 24.7384 44.9009 25.0605C44.5193 25.3826 44.0679 25.6114 43.5825 25.7289V34.2778C44.0689 34.3926 44.5216 34.6198 44.9042 34.9411C45.2869 35.2625 45.5889 35.6691 45.7861 36.1284C45.9832 36.5876 46.0699 37.0866 46.0393 37.5854C46.0087 38.0842 45.8616 38.5688 45.6098 39.0005C45.355 39.4399 44.9998 39.8127 44.5733 40.0884C44.1468 40.3642 43.6611 40.535 43.1559 40.587C42.6507 40.6391 42.1403 40.5707 41.6666 40.3877C41.1929 40.2046 40.7692 39.912 40.4303 39.5338L33.0705 43.7818C33.23 44.2641 33.2728 44.7774 33.1953 45.2795C33.1178 45.7816 32.9223 46.2581 32.6248 46.6699C32.3273 47.0817 31.9363 47.4171 31.484 47.6484C31.0317 47.8797 30.5309 48.0004 30.0229 48.0005C29.5235 48.0009 29.031 47.8846 28.5845 47.661C28.1381 47.4373 27.75 47.1125 27.4513 46.7124C27.1526 46.3123 26.9514 45.8479 26.8639 45.3563C26.7764 44.8647 26.8049 44.3594 26.9471 43.8808L19.5413 39.6091C19.2504 39.9148 18.9021 40.1601 18.5163 40.3309C18.1305 40.5017 17.7148 40.5947 17.293 40.6045C16.8711 40.6144 16.4515 40.5408 16.0582 40.3882C15.6648 40.2355 15.3055 40.0067 15.0008 39.7149C14.5856 39.3157 14.2853 38.8124 14.1311 38.2576C13.9768 37.7027 13.9744 37.1166 14.1241 36.5605C14.2738 36.0044 14.57 35.4986 14.9819 35.0961C15.3937 34.6936 15.9061 34.409 16.4655 34.2721V25.7233C16.0171 25.6165 15.597 25.4144 15.2337 25.1307C14.8704 24.847 14.5725 24.4884 14.3603 24.0792C14.1481 23.67 14.0265 23.22 14.0039 22.7596C13.9812 22.2992 14.058 21.8394 14.2291 21.4113C14.4001 20.9833 14.6614 20.5972 14.9951 20.2792C15.3288 19.9612 15.727 19.7189 16.1628 19.5687C16.5986 19.4184 17.0616 19.3639 17.5203 19.4087C17.9791 19.4535 18.4228 19.5966 18.8213 19.8283C19.0845 19.9801 19.3309 20.168 19.5424 20.3908L26.9483 16.1191C26.7067 15.304 26.7988 14.4263 27.2043 13.679C27.6098 12.9318 28.2954 12.3762 29.1105 12.1344C29.6647 11.9687 30.2534 11.956 30.8143 12.0976C31.3751 12.2393 31.8872 12.5301 32.2962 12.9391C32.7052 13.3481 32.996 13.8602 33.1376 14.421C33.2793 14.9818 33.2666 15.5705 33.1009 16.1248V16.1259ZM32.328 17.4444C32.2988 17.4736 32.2751 17.5029 32.2403 17.5321L41.9321 34.3138C41.9726 34.3025 42.0199 34.2901 42.0548 34.2789V25.7188C41.6466 25.6178 41.2623 25.4373 40.924 25.1876C40.5857 24.9378 40.3001 24.6238 40.0834 24.2634C39.8667 23.903 39.7233 23.5034 39.6614 23.0875C39.5995 22.6716 39.6203 22.2476 39.7226 21.8398C39.7283 21.8049 39.7406 21.7633 39.7463 21.7284L32.328 17.4444ZM27.8044 17.5321L27.7166 17.4444L20.2984 21.7216C20.5333 22.5383 20.4345 23.4147 20.0235 24.1585C19.6126 24.9023 18.9233 25.4526 18.1069 25.6884L17.9899 25.7176V34.2778L18.1193 34.3126L27.8111 17.531L27.8044 17.5321ZM30.9218 18.2938C30.3372 18.4578 29.7187 18.4578 29.1341 18.2938L19.4423 35.0754C19.8821 35.4973 20.1926 36.0418 20.3445 36.6403H39.7103C39.8565 36.0429 40.167 35.4973 40.6125 35.0698L30.9218 18.2938ZM32.3978 42.6331L39.7688 38.3739C39.7463 38.3034 39.7268 38.2329 39.7103 38.1624H20.3389L20.304 38.285L27.7166 42.5623C28.0155 42.2519 28.3741 42.0052 28.7709 41.837C29.1676 41.6688 29.5942 41.5825 30.0251 41.5835C30.969 41.5835 31.8128 41.9885 32.3978 42.6331Z" fill="white"/>
</mask>
<g mask="url(#mask0_409_10)">
<rect x="41.9062" y="5.80203" width="69.4981" height="49" transform="rotate(113.836 41.9062 5.80203)" fill="#278CFF"/>
<rect x="41.9062" y="5.80203" width="69.4981" height="49" transform="rotate(113.836 41.9062 5.80203)" fill="#278CFF"/>
<rect x="90.5547" y="16.802" width="69.4981" height="49" transform="rotate(113.836 90.5547 16.802)" fill="#278CFF"/>
<rect x="90.5547" y="16.802" width="69.4981" height="49" transform="rotate(113.836 90.5547 16.802)" fill="#FF27D7"/>
</g>
</svg>
